<?xml version="1.0" encoding="utf-8"?>
<!-- Generator: Adobe Illustrator 21.1.0, SVG Export Plug-In . SVG Version: 6.00 Build 0)  -->
<svg version="1.1" id="Layer_1" xmlns="http://www.w3.org/2000/svg" xmlns:xlink="http://www.w3.org/1999/xlink" x="0px" y="0px"
	 width="333px" height="43px" viewBox="0 0 333 43" style="enable-background:new 0 0 333 43;" xml:space="preserve">
<style type="text/css">
	.st0{filter:url(#Adobe_OpacityMaskFilter);}
	.st1{fill:#FFFFFF;}
	.st2{mask:url(#full-b);fill:#522E91;}
	.st3{enable-background:new    ;}
	.st4{fill:#522E91;}
	.st5{fill:#2E2E2E;}
</style>
<g>
	<defs>
		<filter id="Adobe_OpacityMaskFilter" filterUnits="userSpaceOnUse" x="0" y="0.1" width="98" height="42.5">
			<feColorMatrix  type="matrix" values="1 0 0 0 0  0 1 0 0 0  0 0 1 0 0  0 0 0 1 0"/>
		</filter>
	</defs>
	<mask maskUnits="userSpaceOnUse" x="0" y="0.1" width="98" height="42.5" id="full-b">
		<g class="st0">
			<polygon id="full-a" class="st1" points="49,0.1 0,0.1 0,42.6 98,42.6 98,0.1 			"/>
		</g>
	</mask>
	<path class="st2" d="M84.5,11.6h-0.6c-1.5,0-1.5,0.4-1.5,1.7v14.1c0,1.3,0,1.6,1.5,1.6h0.6v2.2h-8.3v-2.2h0.7
		c1.5,0,1.5-0.3,1.5-1.6V13.1c0-1.1,0-1.5-1.5-1.5h-0.7V9.4h8.3V11.6z M61.8,28.7c-0.7,1.5-1.8,2.9-3.4,4.1
		c-1.6,1.2-3.4,1.9-5.5,2.1l0.6,0.3c1.7,0.7,3,1,4,1c0.3,0,0.7,0,1.2-0.1l-1.2,2.7c-0.3,0.1-0.6,0.1-0.9,0.1c-1,0-2.5-0.4-4.3-1.3
		c-1.6-0.7-2.8-1.1-3.7-1.1c-0.9,0-1.7,0.3-2.3,0.8l-0.9-1.3c0.6-0.7,1.4-1.1,2.4-1.3c-1.8-0.5-3.3-1.4-4.5-2.6
		c-1.2-1.2-2.1-2.5-2.6-3.9c-0.5-1.4-0.7-2.8-0.7-4.2c0-3.1,1-5.7,3.1-7.8c2.1-2.2,4.8-3.2,8.2-3.2c3.4,0,6.2,1,8.3,3.1
		c2.1,2.1,3.2,4.7,3.2,7.9C62.8,25.6,62.4,27.2,61.8,28.7z M32.5,9.5h-0.6c-1.5,0-1.6,0.2-1.6,1.7v14.3c0,1.2,0,1.5,1.6,1.5h0.6v2.2
		h-8.1V27h0.6c1.5,0,1.5-0.2,1.5-1.7V9.5h-0.1l-6.2,19H17l-6.1-19h-0.1v16c0,1.2,0.1,1.5,1.6,1.5H13v2.2H5.4V27h0.7
		c1.5,0,1.5-0.4,1.5-1.6V11.1c0-1.3-0.1-1.6-1.5-1.6H5.4V7.3h8.3c0.7,2.1,4,12.3,5.2,16.2H19c0.4-1.3,3.8-11.5,5.3-16.2h8.2V9.5z
		 M96.6,2.4l-34,1.9l0.5,4.5l0.8,0l-0.8,0v0L37.6,8.4l0,0h0l-0.4-8.3L0,1.4v35h35v0l0.1,5.8l34.6,0.3l0.2-5.8h0l0,0L98,38.2
		L96.6,2.4z M51.3,15.7c-2.2,0-4.1,0.8-5.5,2.3c-1.4,1.6-2.1,3.5-2.1,5.8c0,2.4,0.7,4.4,2.1,6c1.4,1.6,3.3,2.4,5.6,2.4
		c2.3,0,4.2-0.8,5.6-2.5c1.5-1.6,2.2-3.6,2.2-5.9c0-2.3-0.7-4.2-2.2-5.8C55.4,16.5,53.5,15.7,51.3,15.7L51.3,15.7z"/>
	<g class="st3">
		<path class="st4" d="M132.7,13h-4.6v-1.4h1.2V3h0l-2.9,10h-2l-2.8-10h0v8.6h1.1V13h-4.3v-1.4h1.3V3h-1.3V1.5h4.7l2.4,8.9h0
			l2.4-8.9h4.8V3h-1.3v8.6h1.3V13z"/>
		<path class="st4" d="M135.8,9.2c0,1.2,0.5,2.6,2,2.6c0.8,0,1.4-0.6,1.6-1.4h2c-0.1,1.9-2,2.8-3.7,2.8c-0.5,0-1.3-0.2-1.8-0.4
			c-0.6-0.3-0.9-0.6-1.3-1.1c-0.7-0.9-0.9-2-0.9-3.1c0-2.3,1.3-4.4,3.9-4.4c1.1,0,2.2,0.3,3,1.1c0.7,0.7,0.9,1.9,0.9,2.9
			c0,0.3,0,0.5,0,0.7c0,0,0,0.1,0,0.1H135.8z M139.3,7.9c0-1-0.4-2.3-1.6-2.3c-1.3,0-1.8,1.2-1.9,2.3H139.3z"/>
		<path class="st4" d="M145.6,6.3c0.3-1.5,1.3-2.1,2.8-2v2.1c-0.2-0.1-0.5-0.1-0.8-0.1c-0.8,0-1.5,0.5-1.7,1.2
			c-0.2,0.6-0.2,1.4-0.2,2v2.2h1.4V13h-4.6v-1.4h1.1V5.8h-1.1V4.5h3.1V6.3z"/>
		<path class="st4" d="M154.8,7.7c0-0.5-0.1-1-0.4-1.4c-0.3-0.4-0.6-0.6-1.2-0.6c-1.7,0-1.9,1.9-1.9,3.2c0,1.2,0.4,2.9,1.9,2.9
			c0.9,0,1.4-0.8,1.5-1.6h1.8c-0.1,2.1-1.6,3-3.6,3c-2.7,0-4-2-4-4.6c0-1.1,0.3-2.2,1-3.2c0.4-0.7,1.3-1.2,2.5-1.2
			c1,0,1.9,0.2,2.4,1.2v-1h1.6v3.2H154.8z"/>
		<path class="st4" d="M157.3,13v-1.4h1.1V2.7h-1.1V1.3h3.2v4.2c0.6-0.9,1.3-1.3,2.4-1.3c0.7,0,1.6,0.2,2,0.8c0.5,0.6,0.6,1.3,0.6,2
			v4.6h1.1V13h-4.2v-1.4h1V7.8c0-0.3,0-0.7-0.1-1c0-0.6-0.5-1.1-1.2-1.1c-0.8,0-1.2,0.4-1.5,1.1c-0.2,0.6-0.2,1.2-0.2,1.8v3h1V13
			H157.3z"/>
		<path class="st4" d="M172.8,11.6c-0.5,1.1-1.5,1.6-2.7,1.6c-1.2,0-2.3-0.7-2.5-1.6c-0.2-0.6-0.2-0.8-0.2-1.1
			c0-0.7,0.3-1.4,0.8-1.9c0.4-0.4,1.4-0.7,1.9-0.7c0.4,0,0.8-0.1,1.2-0.1c0.4,0,0.8,0,1.2,0.1c0.1-1,0-2.3-1.4-2.3
			c-0.9,0-1.4,0.6-1.4,1.5h-2.1c0-2.1,1.6-2.8,3.5-2.8c1.3,0,2.6,0.4,3.2,1.7c0.1,0.3,0.2,0.5,0.2,0.8c0,0.4,0.1,0.7,0.1,1.1v3.8
			h1.1V13h-2.9V11.6z M171.6,9.1c-1.1,0-2.1,0.3-2.1,1.6c0,0.7,0.4,1.2,1.1,1.2c1.6,0,1.9-1.5,2-2.7H171.6z"/>
		<path class="st4" d="M179.6,5.9c0.5-1.1,1.4-1.6,2.6-1.6c1.3,0,2.3,0.8,2.5,1.6c0.1,0.4,0.1,0.8,0.1,1.2v4.6h1.1V13h-4.2v-1.4h1
			V7.8c0-0.4,0-0.8-0.1-1.2c-0.1-0.5-0.6-0.9-1.1-0.9c-1.6,0-1.6,1.5-1.6,2.6v3.2h1V13h-4.3v-1.4h1.1V5.8h-1.1V4.5h3.1V5.9z"/>
		<path class="st4" d="M192.3,10.8c0,1-0.3,1.9-1.4,2.3c-0.2,0.1-0.7,0.2-0.9,0.2c-0.4,0-0.6-0.1-1-0.2c-0.7-0.2-1.1-0.7-1.3-1.5
			c-0.1-0.4-0.1-1.1-0.1-1.5V5.8h-1.3V4.5h1.3V3l2.1-0.7v2.2h2.1v1.4h-2.1v5.3c0,0.2,0.1,0.5,0.3,0.5c1,0.4,0.9-1,0.9-1.5h1.3V10.8z
			"/>
		<path class="st4" d="M198.3,7.2c-0.1-0.9-0.4-1.7-1.5-1.7c-0.7,0-1.3,0.3-1.3,1.1c0,0.3,0.1,0.4,0.3,0.7c0.1,0.1,0.3,0.2,0.5,0.2
			c0.9,0.3,2.6,0.4,3.3,1.2c0.4,0.5,0.6,1,0.6,1.7c0,0.5-0.2,1.3-0.5,1.7c-0.4,0.5-1.3,1.1-2.5,1.1c-0.8,0-1.7-0.4-2.1-1.1V13h-1.5
			v-3h1.7c0.1,1.1,0.5,1.8,1.7,1.8c0.6,0,1.2-0.4,1.2-1.1c0-0.3-0.1-0.7-0.4-0.9c-1-0.5-2.1-0.4-3-1c-0.8-0.5-1.1-1.3-1.1-2.2
			c-0.1-0.7,0.3-1.2,0.6-1.5c0.3-0.4,1.4-0.9,2.4-0.9c0.7,0,1.6,0.3,2,0.9V4.5h1.5v2.7H198.3z"/>
		<path class="st4" d="M217.2,11.6v1.5h-2.9c-0.5,0-1.1,0-1.6,0c-0.5,0-1.1,0.1-1.6,0.1c-0.8,0-1.5-0.1-2.2-0.5
			c-0.6-0.3-1.3-0.9-1.7-1.3c-0.9-1.2-1.2-2.5-1.2-4c0-1.6,0.3-3.1,1.4-4.4c1-1.1,2.4-1.7,3.9-1.7c0.8,0,1.4,0.1,2.1,0.3
			c1.1,0.4,1.9,1.1,2.4,2.1c0.5,1,0.8,2.2,0.8,3.3c0,1.7-0.6,3.8-2.2,4.7c0.3,0,0.7-0.1,1-0.1c0.3,0,0.7,0,1,0H217.2z M208.7,4.4
			c-0.4,0.9-0.5,2-0.5,2.9c0,2,0.6,4.4,3,4.4c2.2,0,3-2.5,3-4.3c0-1-0.1-2.3-0.6-3.2c-0.5-0.9-1.2-1.5-2.4-1.5
			C210.1,2.8,209.2,3.4,208.7,4.4z"/>
		<path class="st4" d="M224.4,11.6c-0.4,1.1-1.4,1.6-2.5,1.6c-1.3,0-2.2-0.7-2.4-1.6c-0.1-0.9-0.1-1.3-0.1-1.5V5.8h-1.1V4.5h3.2v5.1
			c0,0.5,0,1,0.2,1.5c0.2,0.4,0.6,0.6,1.1,0.6c0.7,0,1.1-0.5,1.4-1.1c0.2-0.5,0.2-1.3,0.2-1.8V5.8h-1.2V4.5h3.3v7.2h1.1V13h-3.1
			V11.6z"/>
		<path class="st4" d="M233.9,11.6c-0.5,1.1-1.5,1.6-2.7,1.6c-1.2,0-2.3-0.7-2.5-1.6c-0.2-0.6-0.2-0.8-0.2-1.1
			c0-0.7,0.3-1.4,0.8-1.9c0.4-0.4,1.4-0.7,1.9-0.7c0.4,0,0.8-0.1,1.2-0.1c0.4,0,0.8,0,1.2,0.1c0.1-1,0-2.3-1.4-2.3
			c-0.9,0-1.4,0.6-1.4,1.5h-2.1c0-2.1,1.6-2.8,3.5-2.8c1.3,0,2.6,0.4,3.2,1.7c0.1,0.3,0.2,0.5,0.2,0.8c0,0.4,0.1,0.7,0.1,1.1v3.8
			h1.1V13h-2.9V11.6z M232.7,9.1c-1.1,0-2.1,0.3-2.1,1.6c0,0.7,0.4,1.2,1.1,1.2c1.6,0,1.9-1.5,2-2.7H232.7z"/>
		<path class="st4" d="M237.4,4.5h4.1v1.4h-1.1l1.6,4.5l0.1,0.2l1.6-4.7h-1.1V4.5h3.8v1.4h-0.7l-3,7.7c-0.5,1.3-1,2.3-2.6,2.3
			c-0.4,0-0.9,0-1.3-0.1v-1.5c0.3,0,0.6,0,0.9,0c0.8,0,0.9-0.3,1.2-0.9l0.1-0.3L238,5.8h-0.7V4.5z"/>
		<path class="st4" d="M251.4,3V1.5h5V3H255v8.6h1.4V13h-5v-1.4h1.4V3H251.4z"/>
		<path class="st4" d="M260.3,6.3c0.3-1.5,1.3-2.1,2.8-2v2.1c-0.2-0.1-0.5-0.1-0.8-0.1c-0.8,0-1.5,0.5-1.7,1.2
			c-0.2,0.6-0.2,1.4-0.2,2v2.2h1.4V13h-4.6v-1.4h1.1V5.8h-1.1V4.5h3.1V6.3z"/>
		<path class="st4" d="M265.9,9.2c0,1.2,0.5,2.6,2,2.6c0.8,0,1.4-0.6,1.6-1.4h2c-0.1,1.9-2,2.8-3.7,2.8c-0.5,0-1.3-0.2-1.8-0.4
			c-0.6-0.3-0.9-0.6-1.3-1.1c-0.7-0.9-0.9-2-0.9-3.1c0-2.3,1.3-4.4,3.9-4.4c1.1,0,2.2,0.3,3,1.1c0.7,0.7,0.9,1.9,0.9,2.9
			c0,0.3,0,0.5,0,0.7c0,0,0,0.1,0,0.1H265.9z M269.4,7.9c0-1-0.4-2.3-1.6-2.3c-1.3,0-1.8,1.2-1.9,2.3H269.4z"/>
		<path class="st4" d="M272.7,13v-1.4h1.1V2.7h-1.1V1.3h3.2v10.3h1V13H272.7z"/>
		<path class="st4" d="M283.3,11.6c-0.5,1.1-1.5,1.6-2.7,1.6c-1.2,0-2.3-0.7-2.5-1.6c-0.2-0.6-0.2-0.8-0.2-1.1
			c0-0.7,0.3-1.4,0.8-1.9c0.4-0.4,1.4-0.7,1.9-0.7c0.4,0,0.8-0.1,1.2-0.1c0.4,0,0.8,0,1.2,0.1c0.1-1,0-2.3-1.4-2.3
			c-0.9,0-1.4,0.6-1.4,1.5h-2.1c0-2.1,1.6-2.8,3.5-2.8c1.3,0,2.6,0.4,3.2,1.7c0.1,0.3,0.2,0.5,0.2,0.8c0,0.4,0.1,0.7,0.1,1.1v3.8
			h1.1V13h-2.9V11.6z M282.2,9.1c-1.1,0-2.1,0.3-2.1,1.6c0,0.7,0.4,1.2,1.1,1.2c1.6,0,1.9-1.5,2-2.7H282.2z"/>
		<path class="st4" d="M290.2,5.9c0.5-1.1,1.4-1.6,2.6-1.6c1.3,0,2.3,0.8,2.5,1.6c0.1,0.4,0.1,0.8,0.1,1.2v4.6h1.1V13h-4.2v-1.4h1
			V7.8c0-0.4,0-0.8-0.1-1.2c-0.1-0.5-0.6-0.9-1.1-0.9c-1.6,0-1.6,1.5-1.6,2.6v3.2h1V13h-4.3v-1.4h1.1V5.8h-1.1V4.5h3.1V5.9z"/>
		<path class="st4" d="M303.3,11.6c-0.7,1.1-1.6,1.5-2.6,1.6c-1.4,0-2.3-0.7-2.8-1.6c-0.3-0.5-0.6-1.4-0.6-3.1c0-2.2,1-4.3,3.5-4.3
			c1,0,1.9,0.4,2.5,1.3V2.7h-1.1V1.3h3.2v10.3h1.1V13h-3.1V11.6z M302.8,6.7c-0.3-0.5-0.9-1-1.5-1c-1.6,0-1.9,1.8-1.9,3.1
			c0,1.2,0.3,3,1.9,3c1.6,0,1.9-1.8,1.9-3.1C303.2,8,303.1,7.2,302.8,6.7z"/>
	</g>
	<g class="st3">
		<path class="st5" d="M118.5,32v-1.1h1.6v-9.3h-1.6v-1.1h4.6v1.1h-1.6v4h5.5v-4h-1.6v-1.1h4.6v1.1h-1.6v9.3h1.6V32h-4.6v-1.1h1.6
			v-4.2h-5.5v4.2h1.6V32H118.5z"/>
		<path class="st5" d="M132.1,24.6c0.8-0.8,1.8-1.2,2.9-1.2c2.6,0,3.8,2,3.8,4.4c0,2.3-1.3,4.3-3.9,4.3c-1.2,0-2.3-0.4-3-1.4
			c-0.6-0.9-0.9-1.9-0.9-3C131,26.6,131.3,25.5,132.1,24.6z M133,30.1c0.4,0.6,1.1,1.1,1.9,1.1s1.6-0.6,2-1.3
			c0.4-0.7,0.5-1.5,0.5-2.2c0-1.6-0.5-3.3-2.5-3.3c-0.9,0-1.6,0.4-2,1.2c-0.4,0.6-0.5,1.5-0.5,2.2C132.4,28.5,132.5,29.4,133,30.1z"
			/>
		<path class="st5" d="M142.5,25.1c0.3-1.1,1.2-1.8,2.3-1.8c1.3,0,2.1,0.7,2.4,1.8c0.2-1.1,1.3-1.8,2.4-1.8c1.3,0,2.3,0.7,2.5,1.8
			c0.1,0.6,0.1,1,0.1,1.3V31h1.2v1h-3.8v-1h1.3v-4.2c0-1.2,0-2.4-1.6-2.4c-0.8,0-1.4,0.5-1.7,1.2c-0.2,0.6-0.2,1.3-0.2,1.9V31h1.3v1
			h-3.9v-1h1.3v-4.2c0-1.2,0-2.4-1.6-2.4c-0.8,0-1.4,0.5-1.7,1.2c-0.3,0.6-0.3,1.3-0.3,1.9V31h1.3v1h-4v-1h1.4v-6.4h-1.4v-0.9h2.7
			V25.1z"/>
		<path class="st5" d="M161.9,28.1h-6.2c0,0.8,0.2,1.6,0.7,2.2c0.6,0.7,1.1,0.8,2,0.8c1,0,2-0.8,2.1-1.7h1.2
			c-0.3,1.8-1.7,2.7-3.6,2.7c-2.7,0-3.8-1.8-3.8-4.3c0-0.9,0.2-1.8,0.6-2.6c0.6-1.1,1.9-1.8,3.2-1.8c0.8,0,1.7,0.3,2.3,0.7
			c0.7,0.5,1,1.3,1.2,2.1c0.1,0.6,0.2,1,0.2,1.7V28.1z M160.5,27.1c0-1.3-0.8-2.8-2.3-2.8c-1.6,0-2.3,1.4-2.4,2.8H160.5z"/>
		<path class="st5" d="M162.8,32v-1h1.3v-9.5h-1.3v-0.9h2.6V31h1.3v1H162.8z"/>
		<path class="st5" d="M175.2,28.1h-6.2c0,0.8,0.2,1.6,0.7,2.2c0.6,0.7,1.1,0.8,2,0.8c1,0,2-0.8,2.1-1.7h1.2
			c-0.3,1.8-1.7,2.7-3.6,2.7c-2.7,0-3.8-1.8-3.8-4.3c0-0.9,0.2-1.8,0.6-2.6c0.6-1.1,1.9-1.8,3.2-1.8c0.8,0,1.7,0.3,2.3,0.7
			c0.7,0.5,1,1.3,1.2,2.1c0.1,0.6,0.2,1,0.2,1.7V28.1z M173.9,27.1c0-1.3-0.8-2.8-2.3-2.8c-1.6,0-2.3,1.4-2.4,2.8H173.9z"/>
		<path class="st5" d="M181.8,26.3c0-0.9-0.3-1.5-1.2-1.8c-0.2-0.1-0.5-0.1-0.8-0.1c-0.9,0-1.8,0.4-1.8,1.5c0,0.2,0.1,0.6,0.3,0.8
			c0.4,0.3,1,0.4,1.6,0.5c1.5,0.3,3,0.6,3,2.4c0,0.4,0,0.9-0.2,1.2c-0.5,0.8-1.2,1.4-2.5,1.4c-1.3,0-1.9-0.3-2.5-1.4V32h-1v-2.9h1
			c0.1,0.5,0.3,1.2,0.8,1.6c0.4,0.3,0.9,0.5,1.5,0.5c0.9,0,1.7-0.5,1.7-1.5c0-1.2-1.2-1.2-2.1-1.4c-1.4-0.2-2.7-0.6-2.7-2.3
			c0-0.5,0-1.1,0.4-1.4c0.7-0.8,1.5-1.1,2.5-1.1c0.8,0,1.7,0.3,2.1,1.1v-0.8h1v2.7H181.8z"/>
		<path class="st5" d="M189.8,26.3c0-0.9-0.3-1.5-1.2-1.8c-0.2-0.1-0.5-0.1-0.8-0.1c-0.9,0-1.8,0.4-1.8,1.5c0,0.2,0.1,0.6,0.3,0.8
			c0.4,0.3,1,0.4,1.6,0.5c1.5,0.3,3,0.6,3,2.4c0,0.4,0,0.9-0.2,1.2c-0.5,0.8-1.2,1.4-2.5,1.4c-1.3,0-1.9-0.3-2.5-1.4V32h-1v-2.9h1
			c0.1,0.5,0.3,1.2,0.8,1.6c0.4,0.3,0.9,0.5,1.5,0.5c0.9,0,1.7-0.5,1.7-1.5c0-1.2-1.2-1.2-2.1-1.4c-1.4-0.2-2.7-0.6-2.7-2.3
			c0-0.5,0-1.1,0.4-1.4c0.7-0.8,1.5-1.1,2.5-1.1c0.8,0,1.7,0.3,2.1,1.1v-0.8h1v2.7H189.8z"/>
		<path class="st5" d="M204.3,28.9c0.4-0.8,0.6-1.7,0.6-2.7h-1.2v-1h3.9v1h-1.4c-0.1,0.9-0.3,1.9-0.6,2.8c-0.1,0.2-0.2,0.5-0.4,0.8
			l1,1.1h1.7V32h-2.6l-1-1.2c-0.8,0.9-2.1,1.4-3.4,1.4c-2.2,0-3.7-1.2-3.7-3.5c0-1.5,1-2.8,2.3-3.3c-0.8-0.7-1.4-1.6-1.4-2.7
			c0-0.7,0.3-1.5,0.9-2c0.6-0.4,1.3-0.6,2-0.6c0.7,0,1.5,0.1,2,0.6c0.5,0.5,0.8,1.1,0.8,1.8c0,1.5-1,2.4-2.2,3.1L204.3,28.9z
			 M200.4,26.4c-0.9,0.5-1.7,1.3-1.7,2.5c0,0.6,0.3,1.3,0.7,1.7c0.4,0.4,0.9,0.6,1.5,0.6c0.9,0,2-0.5,2.7-1.2L200.4,26.4z
			 M202.4,22.8c0-0.9-0.5-1.5-1.5-1.5c-0.9,0-1.4,0.6-1.4,1.5c0,0.9,0.8,1.6,1.3,2.2C201.6,24.6,202.4,23.7,202.4,22.8z"/>
		<path class="st5" d="M213.6,32v-1.1h1.6v-9.3h-1.6v-1.1h4.4c0.7,0,1.3,0,1.9,0.1c1.2,0.2,2.4,0.9,3,2c0.6,1,0.9,2.3,0.9,3.5
			c0,1.3-0.3,2.8-1,3.9c-0.9,1.2-2,1.7-3.4,1.9c-0.5,0.1-1.3,0.1-1.8,0.1H213.6z M216.6,21.6v9.3h1.2c1.3,0,2.5-0.1,3.5-1.1
			c0.8-0.8,1.2-2.2,1.2-3.4c0-2-0.8-4.3-3-4.7c-0.4-0.1-0.9-0.1-1.3-0.1H216.6z"/>
		<path class="st5" d="M227.8,25.3c0.5-1.4,1-1.8,2.5-1.8h0.3v1.2c-0.2,0-0.4-0.1-0.5-0.1c-1.9,0-2.3,1.6-2.3,3.2V31h1.6v1h-4.2v-1
			h1.3v-6.4h-1.3v-0.9h2.6V25.3z"/>
		<path class="st5" d="M237.9,30.4c-0.4,1.2-1.1,1.7-2.4,1.7c-1.2,0-2.2-0.5-2.5-1.7c-0.1-0.4-0.1-0.9-0.1-1.6v-4.2h-1.3v-0.9h2.6
			v5.1c0,1.1,0.2,2.4,1.6,2.4c0.8,0,1.5-0.4,1.8-1.2c0.3-0.6,0.3-1.4,0.3-2v-3.4h-1.4v-0.9h2.7V31h1.3v1h-2.6V30.4z"/>
		<path class="st5" d="M243.5,32.8c0.2,1,1.1,1.3,2,1.3c0.7,0,1.6-0.3,2-1c0.4-0.6,0.4-1.4,0.4-2.1v-0.5c-0.7,1.1-1.5,1.6-2.8,1.6
			c-2.4,0-3.5-2-3.5-4.2c0-1.1,0.1-2,0.6-2.9c0.6-1.1,1.9-1.6,2.9-1.6c1.2,0,2.3,0.5,2.8,1.6v-1.3h2.7v0.9h-1.4v6.6
			c0,1.2-0.1,2.1-1,3c-0.7,0.6-1.8,0.9-2.7,0.9c-1.6,0-3.3-0.4-3.5-2.3H243.5z M247.3,30c0.4-0.5,0.6-1.4,0.6-2.1
			c0-0.9-0.1-1.6-0.6-2.4c-0.4-0.6-1.1-1.1-1.9-1.1c-1.9,0-2.5,1.7-2.5,3.4c0,0.8,0.1,1.6,0.6,2.3c0.4,0.6,1.1,1,1.8,1
			C246.1,31.1,246.8,30.7,247.3,30z"/>
		<path class="st5" d="M256.7,26.3c0-0.9-0.3-1.5-1.2-1.8c-0.2-0.1-0.5-0.1-0.8-0.1c-0.9,0-1.8,0.4-1.8,1.5c0,0.2,0.1,0.6,0.3,0.8
			c0.4,0.3,1,0.4,1.6,0.5c1.5,0.3,3,0.6,3,2.4c0,0.4,0,0.9-0.2,1.2c-0.5,0.8-1.2,1.4-2.5,1.4c-1.3,0-1.9-0.3-2.5-1.4V32h-1v-2.9h1
			c0.1,0.5,0.3,1.2,0.8,1.6c0.4,0.3,0.9,0.5,1.5,0.5c0.9,0,1.7-0.5,1.7-1.5c0-1.2-1.2-1.2-2.1-1.4c-1.4-0.2-2.7-0.6-2.7-2.3
			c0-0.5,0-1.1,0.4-1.4c0.7-0.8,1.5-1.1,2.5-1.1c0.8,0,1.7,0.3,2.1,1.1v-0.8h1v2.7H256.7z"/>
		<path class="st5" d="M269.9,24.3c0-1.7-0.6-2.9-2.5-2.9c-1.1,0-2,0.7-2,1.9c0,0.5,0.2,1,0.6,1.3c0.2,0.2,1,0.5,1.3,0.6l1.5,0.6
			c0.8,0.3,1.4,0.5,2,1.1c0.5,0.6,0.7,1.3,0.7,2.1c0,0.5,0,1-0.4,1.6c-0.5,1-1.6,1.6-3.1,1.6c-1.2,0-2.3-0.5-2.7-1.6V32h-1.2v-3.9
			h1.2c0,1.6,0.8,3,2.6,3c0.6,0,1.2-0.1,1.6-0.6c0.4-0.4,0.5-0.9,0.5-1.5c0-1.2-0.7-1.5-1.6-1.9l-1.8-0.7c-1.5-0.6-2.5-1.2-2.5-2.9
			c0-0.8,0.1-1.4,0.5-1.9c0.8-1,1.6-1.3,2.9-1.3c1,0,2,0.3,2.6,1.3v-1.1h1.2v3.7H269.9z"/>
		<path class="st5" d="M280.4,28.1h-6.2c0,0.8,0.2,1.6,0.7,2.2c0.6,0.7,1.1,0.8,2,0.8c1,0,2-0.8,2.1-1.7h1.2
			c-0.3,1.8-1.7,2.7-3.6,2.7c-2.7,0-3.8-1.8-3.8-4.3c0-0.9,0.2-1.8,0.6-2.6c0.6-1.1,1.9-1.8,3.2-1.8c0.8,0,1.7,0.3,2.3,0.7
			c0.7,0.5,1,1.3,1.2,2.1c0.1,0.6,0.2,1,0.2,1.7V28.1z M279,27.1c0-1.3-0.8-2.8-2.3-2.8c-1.6,0-2.3,1.4-2.4,2.8H279z"/>
		<path class="st5" d="M284.1,25.3c0.5-1.4,1-1.8,2.5-1.8h0.3v1.2c-0.2,0-0.4-0.1-0.5-0.1c-1.9,0-2.3,1.6-2.3,3.2V31h1.6v1h-4.2v-1
			h1.3v-6.4h-1.3v-0.9h2.6V25.3z"/>
		<path class="st5" d="M287.7,23.6h3.6v0.9h-1.3l2,6.3h0.1l2-6.3h-1.3v-0.9h3.5v0.9h-0.8l-2.5,7.4h-1.6l-2.6-7.4h-0.8V23.6z"/>
		<path class="st5" d="M300.8,32h-3.9v-1h1.3v-6.4h-1.3v-0.9h2.6V31h1.3V32z M299.6,20.5v1.3h-1.5v-1.3H299.6z"/>
		<path class="st5" d="M307.6,26.7c0-1.2-0.8-2.3-2-2.3c-1.8,0-2.5,1.7-2.5,3.2c0,0.8,0.1,1.6,0.6,2.3c0.4,0.7,1.1,1.1,1.9,1.1
			c1.1,0,1.8-0.9,2-1.9h1.2c0,1.9-1.6,2.9-3.3,2.9c-2.4,0-3.8-1.9-3.8-4.2c0-1.2,0.2-2.2,1-3.2c0.6-0.8,1.5-1.3,2.6-1.3
			c1.1,0,1.8,0.4,2.4,1.3v-1h1v3.1H307.6z"/>
		<path class="st5" d="M317.4,28.1h-6.2c0,0.8,0.2,1.6,0.7,2.2c0.6,0.7,1.1,0.8,2,0.8c1,0,2-0.8,2.1-1.7h1.2
			c-0.3,1.8-1.7,2.7-3.6,2.7c-2.7,0-3.8-1.8-3.8-4.3c0-0.9,0.2-1.8,0.6-2.6c0.6-1.1,1.9-1.8,3.2-1.8c0.8,0,1.7,0.3,2.3,0.7
			c0.7,0.5,1,1.3,1.2,2.1c0.1,0.6,0.2,1,0.2,1.7V28.1z M316,27.1c0-1.3-0.8-2.8-2.3-2.8c-1.6,0-2.3,1.4-2.4,2.8H316z"/>
		<path class="st5" d="M324,26.3c0-0.9-0.3-1.5-1.2-1.8c-0.2-0.1-0.5-0.1-0.8-0.1c-0.9,0-1.8,0.4-1.8,1.5c0,0.2,0.1,0.6,0.3,0.8
			c0.4,0.3,1,0.4,1.6,0.5c1.5,0.3,3,0.6,3,2.4c0,0.4,0,0.9-0.2,1.2c-0.5,0.8-1.2,1.4-2.5,1.4c-1.3,0-1.9-0.3-2.5-1.4V32h-1v-2.9h1
			c0.1,0.5,0.3,1.2,0.8,1.6c0.4,0.3,0.9,0.5,1.5,0.5c0.9,0,1.7-0.5,1.7-1.5c0-1.2-1.2-1.2-2.1-1.4c-1.4-0.2-2.7-0.6-2.7-2.3
			c0-0.5,0-1.1,0.4-1.4c0.7-0.8,1.5-1.1,2.5-1.1c0.8,0,1.7,0.3,2.1,1.1v-0.8h1v2.7H324z"/>
	</g>
</g>
</svg>
